# This file uses meters as units for non-parametric coordinates.

mtllib bg_fleet.mtl
g default
v -547.803955 465.079346 -12096.363281
v 547.803955 465.079346 -12096.363281
v -547.803955 1560.686768 -12097.495117
v 547.803955 1560.686768 -12097.495117
v 1583.244629 2050.958252 -11998.710938
v 2346.816162 2050.958252 -11873.002930
v 1583.374512 2824.807861 -11999.5
v 2346.945801 2824.807861 -11873.791992
v -9401.073242 -1697.602905 7623.900391
v -9910.639648 -1697.602905 6948.615234
v -9401.770508 -851.630981 7624.426758
v -9911.336914 -851.630981 6949.141602
v -8011.528809 -2857.936768 9076.593750
v -8727.486328 -2857.936768 8390.478516
v -8012.237305 -1866.296997 9077.333008
v -8728.195313 -1866.296997 8391.217773
v -7307.506348 -1586.296387 9657.411133
v -8207.791016 -1586.296387 8904.909180
v -7308.283203 -412.937500 9658.340820
v -8208.568359 -412.937500 8905.838867
v 9645.770508 2406.597900 7312.320801
v 9100.516602 2406.597900 7980.696777
v 9646.460938 3269.168213 7312.883789
v 9101.207031 3269.168213 7981.259766
v 12027.492188 -37.412872 1362.295654
v 11897.545898 -37.412872 2228.191406
v 12028.386719 838.178955 1362.429810
v 11898.440430 838.178955 2228.325684
v 11003.041016 1276.203613 5059.478516
v 10461.772461 1276.203613 6100.536133
v 11004.116211 2449.562500 5060.037598
v 10462.847656 2449.562500 6101.095215
vt 0.005562 0.001338
vt 1.005562 0.001338
vt 1.005562 1.001338
vt 0.005562 1.001338
vt 0.005562 0.001338
vt 1.005562 0.001338
vt 0.005562 1.001338
vt 1.005562 1.001338
vt 0.005562 0.001338
vt 1.005562 0.001338
vt 0.005562 1.001338
vt 1.005562 1.001338
vt 0.005562 0.001338
vt 1.005562 0.001338
vt 0.005562 1.001338
vt 1.005562 1.001338
vt 0.005562 0.001338
vt 1.005562 0.001338
vt 0.005562 1.001338
vt 1.005562 1.001338
vt 0.005562 0.001338
vt 1.005562 0.001338
vt 0.005562 1.001338
vt 1.005562 1.001338
vt 0.005562 0.001338
vt 1.005562 0.001338
vt 0.005562 1.001338
vt 1.005562 1.001338
vt 0.005562 0.001338
vt 1.005562 0.001338
vt 0.005562 1.001338
vt 1.005562 1.001338
vn -0.000001 0.001033 0.999999
vn -0.000001 0.001033 0.999999
vn -0.000001 0.001033 0.999999
vn -0.000001 0.001033 0.999999
vn -0.162443 0.001033 0.986717
vn -0.162444 0.001033 0.986717
vn -0.162444 0.001033 0.986717
vn -0.162445 0.001033 0.986717
vn 0.798236 0.001033 -0.602344
vn 0.798236 0.001032 -0.602344
vn 0.798236 0.001032 -0.602344
vn 0.798236 0.001032 -0.602344
vn 0.691900 0.001033 -0.721993
vn 0.691900 0.001033 -0.721993
vn 0.691900 0.001033 -0.721993
vn 0.691899 0.001033 -0.721993
vn 0.641323 0.001032 -0.767271
vn 0.641322 0.001032 -0.767271
vn 0.641322 0.001032 -0.767271
vn 0.641322 0.001033 -0.767271
vn -0.774865 0.001033 -0.632126
vn -0.774865 0.001033 -0.632126
vn -0.774865 0.001033 -0.632126
vn -0.774865 0.001033 -0.632126
vn -0.988925 0.001034 -0.148410
vn -0.988925 0.001034 -0.148410
vn -0.988925 0.001034 -0.148410
vn -0.988925 0.001034 -0.148410
vn -0.887245 0.001033 -0.461298
vn -0.887245 0.001033 -0.461298
vn -0.887245 0.001033 -0.461298
vn -0.887245 0.001033 -0.461298
s 1
g polySurface29
usemtl lambert5SG
f 1/1/1 2/2/2 3/4/3
f 2/2/2 4/3/4 3/4/3
s 2
f 5/5/5 6/6/6 7/7/7
f 6/6/6 8/8/8 7/7/7
s 3
f 9/9/9 10/10/10 11/11/11
f 10/10/10 12/12/12 11/11/11
s 4
f 13/13/13 14/14/14 15/15/15
f 14/14/14 16/16/16 15/15/15
s 5
f 17/17/17 18/18/18 19/19/19
f 18/18/18 20/20/20 19/19/19
s 6
f 21/21/21 22/22/22 23/23/23
f 22/22/22 24/24/24 23/23/23
s 7
f 25/25/25 26/26/26 27/27/27
f 26/26/26 28/28/28 27/27/27
s 8
f 29/29/29 30/30/30 31/31/31
f 30/30/30 32/32/32 31/31/31
