# This file uses meters as units for non-parametric coordinates.

mtllib bg_stars.mtl
g default
v 9538.027488 -695.931108 -9538.018226
v 5161.946505 -695.931108 -12462.024810
v 0.006006 -695.931108 -13488.800808
v -5161.935699 -695.931108 -12462.029956
v -9538.020284 -695.931108 -9538.026459
v -12462.026869 -695.931108 -5161.945476
v -12462.029956 -695.931108 5161.938272
v -9538.026459 -695.931108 9538.022343
v -5161.943932 -695.931108 12462.028927
v -0.002165 -695.931108 13488.803896
v 5161.940330 -695.931108 12462.030985
v 9538.024401 -695.931108 9538.026459
v 9538.027488 695.931108 -9538.018226
v 5161.946505 695.931108 -12462.024810
v 0.006006 695.931108 -13488.800808
v -5161.935699 695.931108 -12462.029956
v -9538.020284 695.931108 -9538.026459
v -12462.026869 695.931108 -5161.945476
v -12462.029956 695.931108 5161.938272
v -9538.026459 695.931108 9538.022343
v -5161.943932 695.931108 12462.028927
v -0.002165 695.931108 13488.803896
v 5161.940330 695.931108 12462.030985
v 9538.024401 695.931108 9538.026459
vt 0.995109 1.001403
vt 0.995109 0.001403
vt 0.805819 1.001403
vt 0.805819 0.001403
vt 0.600137 1.001403
vt 0.600137 0.001403
vt 0.394454 1.001403
vt 0.394454 0.001403
vt 0.200190 1.001403
vt 0.200190 0.001403
vt 0.004099 1.001403
vt 0.004099 0.001403
vt 0.995554 1.001403
vt 0.995554 0.001403
vt 0.799287 0.001403
vt 0.799287 1.001403
vt 0.604849 0.001403
vt 0.604849 1.001403
vt 0.398982 0.001403
vt 0.398982 1.001403
vt 0.193115 0.001403
vt 0.193115 1.001403
vt 0.003655 0.001403
vt 0.003655 1.001403
vn -0.555571 0 0.831469
vn -0.555571 0 0.831469
vn -0.442968 0 0.896537
vn -0.320723 0 0.947173
vn -0.066159 0 0.997809
vn 0.066158 -0 0.997809
vn 0.320722 -0 0.947173
vn 0.442967 -0 0.896538
vn 0.658776 -0 0.752339
vn 0.752339 -0 0.658777
vn 0.831469 -0 0.555571
vn 0.831469 -0 0.555571
vn 0.831470 -0 -0.555570
vn 0.831470 -0 -0.555570
vn 0.752339 -0 -0.658776
vn 0.658776 -0 -0.752339
vn 0.442968 -0 -0.896537
vn 0.320722 -0 -0.947173
vn 0.066159 -0 -0.997809
vn -0.066159 -0 -0.997809
vn -0.320722 0 -0.947173
vn -0.442968 0 -0.896538
vn -0.555570 0 -0.831470
vn -0.555570 0 -0.831470
s 1
g pCylinder_tria
usemtl lambert3SG
f 1/2/1 13/1/2 2/4/3
f 13/1/2 14/3/4 2/4/3
f 2/4/3 14/3/4 3/6/5
f 14/3/4 15/5/6 3/6/5
f 3/6/5 15/5/6 4/8/7
f 15/5/6 16/7/8 4/8/7
f 4/8/7 16/7/8 5/10/9
f 16/7/8 17/9/10 5/10/9
f 5/10/9 17/9/10 6/12/11
f 17/9/10 18/11/12 6/12/11
s 2
f 7/13/13 19/14/14 8/16/15
f 19/14/14 20/15/16 8/16/15
f 8/16/15 20/15/16 9/18/17
f 20/15/16 21/17/18 9/18/17
f 9/18/17 21/17/18 10/20/19
f 21/17/18 22/19/20 10/20/19
f 10/20/19 22/19/20 11/22/21
f 22/19/20 23/21/22 11/22/21
f 11/22/21 23/21/22 12/24/23
f 23/21/22 24/23/24 12/24/23
