# This file uses meters as units for non-parametric coordinates.

mtllib cam_block01.mtl
g default
v -99.999983 99.999987 25.000005
v -99.999983 -0.000018 25.000005
v -99.999983 99.999987 -624.999988
v -99.999983 -0.000018 -624.999988
v -81.742903 99.999987 0.943875
v -81.742903 -0.000018 0.943875
v -81.742903 99.999987 -599.819568
v -81.742903 -0.000018 -599.819568
vt -0.5 1.5
vt -0.5 -0.5
vt -0.425981 -0.5
vt -0.425981 1.5
vt 1.422522 -0.5
vt 1.422522 1.5
vt 1.5 -0.5
vt 1.5 1.5
vn 0.796570 -0 0.604546
vn 0.796570 -0 0.604546
vn 0.947779 -0 0.318928
vn 0.947779 -0 0.318928
vn 0.951207 0 -0.308552
vn 0.951207 0 -0.308552
vn 0.809591 0 -0.586994
vn 0.809591 0 -0.586994
s 1
g short
usemtl lambert2SG
f 1/1/1 2/2/2 6/3/3 5/4/4
f 5/4/4 6/3/3 8/5/5 7/6/6
f 7/6/6 8/5/5 4/7/7 3/8/8
