# This file uses meters as units for non-parametric coordinates.

mtllib Hover_fire_single.mtl
g default
v -14.411827 -0.000000 0.000000
v 14.411823 -0.000000 0.000000
v -14.411827 0.000000 -37.500000
v 14.411823 0.000000 -37.500000
v 0.000000 -0.000000 0.000000
v 0.000000 0.000000 -37.500000
v 0.000000 -12.500000 0.000000
v 0.000000 12.500000 0.000000
v 0.000000 -12.500000 -37.500000
v 0.000000 12.500000 -37.500000
v 0.000000 -0.000000 0.000000
v 0.000000 -0.000000 -37.500000
v -8.838833 -8.838833 0.000000
v 8.838837 8.838835 0.000000
v -8.838833 -8.838833 -37.500000
v 8.838837 8.838835 -37.500000
v 0.000000 0.000000 0.000000
v 0.000000 0.000000 -37.500000
v 8.838837 -8.838837 0.000000
v -8.838837 8.838835 0.000000
v 8.838837 -8.838837 -37.500000
v -8.838837 8.838835 -37.500000
v 0.000000 0.000000 0.000000
v 0.000000 0.000000 -37.500000
vt 0.000000 0.000000
vt 1.000000 0.000000
vt 1.000000 0.999313
vt 0.000000 0.999313
vt 0.500000 0.000000
vt 0.500000 0.999313
vt 0.000000 0.000000
vt 0.500000 0.000000
vt 0.500000 0.999313
vt 0.000000 0.999313
vt 1.000000 0.000000
vt 1.000000 0.999313
vt 0.000000 0.000000
vt 0.500000 0.000000
vt 0.500000 0.999313
vt 0.000000 0.999313
vt 1.000000 0.000000
vt 1.000000 0.999313
vt 0.000000 0.000000
vt 0.500000 0.000000
vt 0.500000 0.999313
vt 0.000000 0.999313
vt 1.000000 0.000000
vt 1.000000 0.999313
vn 0.000000 1.000000 0.000000
vn 0.000000 1.000000 0.000000
vn 0.000000 1.000000 0.000000
vn 0.000000 1.000000 0.000000
vn 0.000000 1.000000 0.000000
vn 0.000000 1.000000 0.000000
vn 0.000000 1.000000 0.000000
vn 0.000000 1.000000 0.000000
vn -1.000000 0.000000 0.000000
vn -1.000000 0.000000 0.000000
vn -1.000000 0.000000 0.000000
vn -1.000000 0.000000 0.000000
vn -1.000000 0.000000 0.000000
vn -1.000000 0.000000 0.000000
vn -1.000000 0.000000 0.000000
vn -1.000000 0.000000 0.000000
vn -0.707107 0.707107 0.000000
vn -0.707107 0.707107 0.000000
vn -0.707107 0.707107 0.000000
vn -0.707107 0.707107 0.000000
vn -0.707107 0.707107 0.000000
vn -0.707107 0.707107 0.000000
vn -0.707107 0.707107 0.000000
vn -0.707107 0.707107 0.000000
vn -0.707107 -0.707107 0.000000
vn -0.707107 -0.707107 0.000000
vn -0.707107 -0.707107 0.000000
vn -0.707107 -0.707107 0.000000
vn -0.707107 -0.707107 0.000000
vn -0.707107 -0.707107 0.000000
vn -0.707107 -0.707107 0.000000
vn -0.707107 -0.707107 0.000000
s 1
g new_enginefire_new
usemtl Hoover03_02_pasted__lambert5SG
f 1/1/1 5/5/2 3/4/3
f 3/4/3 5/5/2 6/6/4
s 2
f 5/5/5 2/2/6 6/6/7
f 6/6/7 2/2/6 4/3/8
s 3
f 7/7/9 11/8/10 9/10/11
f 9/10/11 11/8/10 12/9/12
s 4
f 11/8/13 8/11/14 12/9/15
f 12/9/15 8/11/14 10/12/16
s 5
f 13/13/17 17/14/18 15/16/19
f 15/16/19 17/14/18 18/15/20
s 6
f 17/14/21 14/17/22 18/15/23
f 18/15/23 14/17/22 16/18/24
s 7
f 19/19/25 23/20/26 21/22/27
f 21/22/27 23/20/26 24/21/28
s 8
f 23/20/29 20/23/30 24/21/31
f 24/21/31 20/23/30 22/24/32
