# This file uses meters as units for non-parametric coordinates.

mtllib Hover_All_Rotor.mtl
g default
v 3.755086 -2.613313 -1.555412
v 2.874013 -2.613313 -2.874039
v 1.555394 -2.613313 -3.755112
v -0.000024 -2.613313 -4.064507
v -1.555442 -2.613313 -3.755112
v -2.874062 -2.613313 -2.874039
v -3.755137 -2.613313 -1.555420
v -4.064529 -2.613313 0.000000
v -3.755138 -2.613313 1.555420
v -2.874065 -2.613313 2.874039
v -1.555445 -2.613313 3.755112
v -0.000026 -2.613313 4.064507
v 1.555392 -2.613313 3.755112
v 2.874012 -2.613313 2.874039
v 3.755086 -2.613313 1.555420
v 4.064478 -2.613313 0.000000
v 4.547342 -2.029376 -1.883575
v 3.480380 -2.029376 -3.480400
v 1.883557 -2.029376 -4.547363
v -0.000024 -2.029376 -4.922035
v -1.883605 -2.029376 -4.547371
v -3.480428 -2.029376 -3.480408
v -4.547392 -2.029376 -1.883583
v -4.922060 -2.029376 0.000000
v -4.547394 -2.029376 1.883583
v -3.480431 -2.029376 3.480400
v -1.883608 -2.029376 4.547371
v -0.000027 -2.029376 4.922035
v 1.883555 -2.029376 4.547371
v 3.480378 -2.029376 3.480408
v 4.547342 -2.029376 1.883583
v 4.922010 -2.029376 0.000000
v 4.547342 -1.238894 -1.883575
v 3.480380 -1.238894 -3.480400
v 1.883557 -1.238894 -4.547363
v -0.000024 -1.238894 -4.922035
v -1.883605 -1.238894 -4.547371
v -3.480428 -1.238894 -3.480408
v -4.547392 -1.238894 -1.883583
v -4.922060 -1.238894 0.000000
v -4.547394 -1.238894 1.883583
v -3.480431 -1.238894 3.480400
v -1.883608 -1.238894 4.547371
v -0.000027 -1.238894 4.922035
v 1.883555 -1.238894 4.547371
v 3.480378 -1.238894 3.480408
v 4.547342 -1.238894 1.883583
v 4.922010 -1.238894 0.000000
v 3.755086 -0.654957 -1.555412
v 2.874013 -0.654957 -2.874039
v 1.555394 -0.654957 -3.755112
v -0.000024 -0.654957 -4.064507
v -1.555442 -0.654957 -3.755112
v -2.874062 -0.654957 -2.874039
v -3.755137 -0.654957 -1.555420
v -4.064530 -0.654957 0.000000
v -3.755138 -0.654957 1.555420
v -2.874065 -0.654957 2.874039
v -1.555445 -0.654957 3.755112
v -0.000026 -0.654957 4.064507
v 1.555392 -0.654957 3.755112
v 2.874012 -0.654957 2.874039
v 3.755086 -0.654957 1.555420
v 4.064478 -0.654957 0.000000
v -0.000026 -2.613313 0.000000
v -0.000026 -0.654957 0.000000
v -46.794086 -1.633374 46.794060
v 46.794037 -1.633374 46.794060
v -46.794086 -1.634928 -46.794060
v 46.794037 -1.633374 -46.794060
v -2.637676 -1.810324 -2.212175
v 2.637676 -1.810324 -2.212175
v -7.234037 -1.810324 -46.824032
v 7.234037 -1.810324 -46.824032
v 0.000000 -1.074816 -2.212174
v 0.000000 -1.074816 -46.824032
v -2.212175 -1.810324 2.637676
v -2.212175 -1.810324 -2.637676
v -46.824032 -1.810324 7.234037
v -46.824032 -1.810324 -7.234037
v -2.212174 -1.074816 -0.000000
v -46.824032 -1.074816 -0.000000
v 2.637676 -1.810324 2.212175
v -2.637676 -1.810324 2.212175
v 7.234037 -1.810324 46.824032
v -7.234037 -1.810324 46.824032
v -0.000000 -1.074816 2.212174
v -0.000000 -1.074816 46.824032
v 2.212175 -1.810324 -2.637676
v 2.212175 -1.810324 2.637676
v 46.824032 -1.810324 -7.234037
v 46.824032 -1.810324 7.234037
v 2.212174 -1.074816 -0.000000
v 46.824032 -1.074816 -0.000000
vt 0.248041 0.690736
vt 0.243689 0.697251
vt 0.248120 0.701683
vt 0.253832 0.693135
vt 0.237174 0.701604
vt 0.239573 0.707394
vt 0.229490 0.703132
vt 0.229490 0.709399
vt 0.221806 0.701604
vt 0.219408 0.707394
vt 0.215292 0.697251
vt 0.210860 0.701683
vt 0.210939 0.690736
vt 0.205149 0.693135
vt 0.209410 0.683052
vt 0.203143 0.683052
vt 0.210939 0.675368
vt 0.205149 0.672970
vt 0.215292 0.668854
vt 0.210860 0.664422
vt 0.221806 0.664501
vt 0.219408 0.658711
vt 0.229490 0.662972
vt 0.229490 0.656705
vt 0.237174 0.664501
vt 0.239573 0.658711
vt 0.243689 0.668854
vt 0.248120 0.664422
vt 0.248041 0.675368
vt 0.253832 0.672970
vt 0.249570 0.683052
vt 0.255837 0.683052
vt 0.298852 0.635825
vt 0.312743 0.635825
vt 0.312743 0.642213
vt 0.298852 0.642213
vt 0.326634 0.635825
vt 0.326634 0.642213
vt 0.340526 0.635825
vt 0.340526 0.642213
vt 0.118266 0.635825
vt 0.132157 0.635825
vt 0.132157 0.642213
vt 0.118266 0.642213
vt 0.146049 0.635825
vt 0.146049 0.642213
vt 0.159940 0.635825
vt 0.159940 0.642213
vt 0.173831 0.635825
vt 0.173831 0.642213
vt 0.187722 0.635825
vt 0.187722 0.642213
vt 0.201614 0.635825
vt 0.201614 0.642213
vt 0.215505 0.635825
vt 0.215505 0.642213
vt 0.229396 0.635825
vt 0.229396 0.642213
vt 0.243287 0.635825
vt 0.243287 0.642213
vt 0.257178 0.635825
vt 0.257178 0.642213
vt 0.271070 0.635825
vt 0.271070 0.642213
vt 0.284961 0.635825
vt 0.284961 0.642213
vt 0.253832 0.693135
vt 0.248120 0.701683
vt 0.243689 0.697251
vt 0.248041 0.690736
vt 0.239573 0.707394
vt 0.237174 0.701604
vt 0.229490 0.709399
vt 0.229490 0.703132
vt 0.219408 0.707394
vt 0.221806 0.701604
vt 0.210860 0.701683
vt 0.215292 0.697251
vt 0.205149 0.693135
vt 0.210939 0.690736
vt 0.203143 0.683052
vt 0.209410 0.683052
vt 0.205149 0.672970
vt 0.210939 0.675368
vt 0.210860 0.664422
vt 0.215292 0.668854
vt 0.219408 0.658711
vt 0.221806 0.664501
vt 0.229490 0.656705
vt 0.229490 0.662972
vt 0.239573 0.658711
vt 0.237174 0.664501
vt 0.248120 0.664422
vt 0.243689 0.668854
vt 0.253832 0.672970
vt 0.248041 0.675368
vt 0.255837 0.683052
vt 0.249570 0.683052
vt 0.229490 0.683052
vt 0.229490 0.683052
vt -0.000000 -0.000000
vt 1.000000 -0.000000
vt 1.000000 1.000000
vt -0.000000 1.000000
vt 0.212731 0.713519
vt 0.198240 0.902523
vt 0.256955 0.902523
vt 0.242464 0.713519
vt 0.227598 0.713519
vt 0.227598 0.902523
vt 0.212731 0.713519
vt 0.198240 0.902523
vt 0.256955 0.902523
vt 0.242464 0.713519
vt 0.227598 0.713519
vt 0.227598 0.902523
vt 0.212731 0.713519
vt 0.198240 0.902523
vt 0.256955 0.902523
vt 0.242464 0.713519
vt 0.227598 0.713519
vt 0.227598 0.902523
vt 0.212731 0.713519
vt 0.198240 0.902523
vt 0.256955 0.902523
vt 0.242464 0.713519
vt 0.227598 0.713519
vt 0.227598 0.902523
vn 0.635153 -0.470537 -0.612516
vn 0.821204 -0.470537 -0.322829
vn 0.265220 -0.935802 -0.232236
vn 0.333904 -0.935802 -0.113063
vn 0.352406 -0.470537 -0.808953
vn 0.156159 -0.935801 -0.316054
vn 0.016008 -0.470537 -0.882235
vn 0.023323 -0.935801 -0.351755
vn -0.322828 -0.470538 -0.821204
vn -0.113063 -0.935802 -0.333904
vn -0.612516 -0.470538 -0.635152
vn -0.232236 -0.935802 -0.265219
vn -0.808953 -0.470537 -0.352405
vn -0.316053 -0.935802 -0.156158
vn -0.882235 -0.470537 -0.016007
vn -0.351754 -0.935802 -0.023323
vn -0.821204 -0.470537 0.322829
vn -0.333904 -0.935802 0.113063
vn -0.635153 -0.470537 0.612516
vn -0.265220 -0.935802 0.232237
vn -0.352406 -0.470538 0.808953
vn -0.156158 -0.935802 0.316053
vn -0.016006 -0.470537 0.882235
vn -0.023322 -0.935802 0.351754
vn 0.322828 -0.470538 0.821204
vn 0.113063 -0.935802 0.333904
vn 0.612516 -0.470538 0.635152
vn 0.232236 -0.935802 0.265219
vn 0.808953 -0.470537 0.352405
vn 0.316053 -0.935802 0.156158
vn 0.882235 -0.470537 0.016006
vn 0.351754 -0.935802 0.023323
vn 0.808953 0.470537 -0.352405
vn 0.612517 0.470537 -0.635152
vn 0.322830 0.470536 -0.821204
vn -0.016005 0.470537 -0.882235
vn -0.352404 0.470538 -0.808953
vn -0.635152 0.470538 -0.612516
vn -0.821204 0.470537 -0.322829
vn -0.882235 0.470537 0.016006
vn -0.808953 0.470537 0.352405
vn -0.612517 0.470537 0.635152
vn -0.322829 0.470538 0.821204
vn 0.016006 0.470537 0.882235
vn 0.352404 0.470538 0.808953
vn 0.635152 0.470538 0.612516
vn 0.821204 0.470538 0.322829
vn 0.882235 0.470537 -0.016007
vn 0.316054 0.935802 -0.156158
vn 0.232237 0.935801 -0.265220
vn 0.113064 0.935801 -0.333905
vn -0.023322 0.935802 -0.351754
vn -0.156158 0.935802 -0.316053
vn -0.265219 0.935802 -0.232236
vn -0.333904 0.935802 -0.113063
vn -0.351754 0.935802 0.023323
vn -0.316053 0.935802 0.156158
vn -0.232237 0.935802 0.265220
vn -0.113063 0.935802 0.333904
vn 0.023322 0.935802 0.351754
vn 0.156158 0.935802 0.316053
vn 0.265219 0.935802 0.232236
vn 0.333904 0.935802 0.113063
vn 0.351754 0.935802 -0.023323
vn 0.000000 -1.000000 -0.000000
vn 0.000000 1.000000 -0.000000
vn 0.000000 1.000000 -0.000017
vn -0.000008 1.000000 -0.000008
vn -0.000008 1.000000 -0.000008
vn -0.000017 1.000000 -0.000000
vn 0.000000 -1.000000 0.000000
vn 0.000000 -1.000000 0.000000
vn 0.000000 -1.000000 0.000000
vn 0.000000 -1.000000 0.000000
vn -0.101146 0.994817 0.010421
vn -0.185550 0.982621 0.005230
vn 0.000000 0.999986 0.005322
vn 0.000000 1.000000 0.000000
vn 0.101146 0.994817 0.010421
vn 0.185550 0.982621 0.005230
vn 0.000000 -1.000000 -0.000000
vn 0.000000 -1.000000 0.000000
vn 0.000000 -1.000000 0.000000
vn 0.000000 -1.000000 0.000000
vn 0.010421 0.994817 0.101146
vn 0.005230 0.982621 0.185550
vn 0.005322 0.999986 0.000000
vn -0.000000 1.000000 0.000000
vn 0.010421 0.994817 -0.101146
vn 0.005230 0.982621 -0.185550
vn 0.000000 -1.000000 -0.000000
vn 0.000000 -1.000000 -0.000000
vn 0.000000 -1.000000 -0.000000
vn 0.000000 -1.000000 -0.000000
vn 0.101146 0.994817 -0.010421
vn 0.185550 0.982621 -0.005230
vn 0.000000 0.999986 -0.005322
vn 0.000000 1.000000 -0.000000
vn -0.101146 0.994817 -0.010421
vn -0.185550 0.982621 -0.005230
vn 0.000000 -1.000000 0.000000
vn 0.000000 -1.000000 -0.000000
vn 0.000000 -1.000000 -0.000000
vn 0.000000 -1.000000 -0.000000
vn -0.010421 0.994817 -0.101146
vn -0.005230 0.982621 -0.185550
vn -0.005322 0.999986 0.000000
vn 0.000000 1.000000 0.000000
vn -0.010421 0.994817 0.101146
vn -0.005230 0.982621 0.185550
s 1
g rotor_lowpoly
usemtl Hoover01_02_bumpmapped_blinn1SG
f 18/3/1 17/4/2 2/2/3
f 1/1/4 2/2/3 17/4/2
f 19/6/5 18/3/1 3/5/6
f 2/2/3 3/5/6 18/3/1
f 20/8/7 19/6/5 4/7/8
f 3/5/6 4/7/8 19/6/5
f 21/10/9 20/8/7 5/9/10
f 4/7/8 5/9/10 20/8/7
f 22/12/11 21/10/9 6/11/12
f 5/9/10 6/11/12 21/10/9
f 23/14/13 22/12/11 7/13/14
f 6/11/12 7/13/14 22/12/11
f 24/16/15 23/14/13 8/15/16
f 7/13/14 8/15/16 23/14/13
f 25/18/17 24/16/15 9/17/18
f 8/15/16 9/17/18 24/16/15
f 26/20/19 25/18/17 10/19/20
f 9/17/18 10/19/20 25/18/17
f 27/22/21 26/20/19 11/21/22
f 10/19/20 11/21/22 26/20/19
f 28/24/23 27/22/21 12/23/24
f 11/21/22 12/23/24 27/22/21
f 29/26/25 28/24/23 13/25/26
f 12/23/24 13/25/26 28/24/23
f 30/28/27 29/26/25 14/27/28
f 13/25/26 14/27/28 29/26/25
f 31/30/29 30/28/27 15/29/30
f 14/27/28 15/29/30 30/28/27
f 32/32/31 31/30/29 16/31/32
f 15/29/30 16/31/32 31/30/29
f 17/4/2 32/32/31 1/1/4
f 16/31/32 1/1/4 32/32/31
f 17/33/2 18/34/1 33/36/33
f 18/34/1 34/35/34 33/36/33
f 18/34/1 19/37/5 34/35/34
f 19/37/5 35/38/35 34/35/34
f 19/37/5 20/39/7 35/38/35
f 20/39/7 36/40/36 35/38/35
f 20/41/7 21/42/9 36/44/36
f 21/42/9 37/43/37 36/44/36
f 21/42/9 22/45/11 37/43/37
f 22/45/11 38/46/38 37/43/37
f 22/45/11 23/47/13 38/46/38
f 23/47/13 39/48/39 38/46/38
f 23/47/13 24/49/15 39/48/39
f 24/49/15 40/50/40 39/48/39
f 24/49/15 25/51/17 40/50/40
f 25/51/17 41/52/41 40/50/40
f 25/51/17 26/53/19 41/52/41
f 26/53/19 42/54/42 41/52/41
f 26/53/19 27/55/21 42/54/42
f 27/55/21 43/56/43 42/54/42
f 27/55/21 28/57/23 43/56/43
f 28/57/23 44/58/44 43/56/43
f 28/57/23 29/59/25 44/58/44
f 29/59/25 45/60/45 44/58/44
f 29/59/25 30/61/27 45/60/45
f 30/61/27 46/62/46 45/60/45
f 30/61/27 31/63/29 46/62/46
f 31/63/29 47/64/47 46/62/46
f 31/63/29 32/65/31 47/64/47
f 32/65/31 48/66/48 47/64/47
f 32/65/31 17/33/2 48/66/48
f 17/33/2 33/36/33 48/66/48
f 33/67/33 34/68/34 49/70/49
f 34/68/34 50/69/50 49/70/49
f 34/68/34 35/71/35 50/69/50
f 35/71/35 51/72/51 50/69/50
f 35/71/35 36/73/36 51/72/51
f 36/73/36 52/74/52 51/72/51
f 36/73/36 37/75/37 52/74/52
f 37/75/37 53/76/53 52/74/52
f 37/75/37 38/77/38 53/76/53
f 38/77/38 54/78/54 53/76/53
f 38/77/38 39/79/39 54/78/54
f 39/79/39 55/80/55 54/78/54
f 39/79/39 40/81/40 55/80/55
f 40/81/40 56/82/56 55/80/55
f 40/81/40 41/83/41 56/82/56
f 41/83/41 57/84/57 56/82/56
f 41/83/41 42/85/42 57/84/57
f 42/85/42 58/86/58 57/84/57
f 42/85/42 43/87/43 58/86/58
f 43/87/43 59/88/59 58/86/58
f 43/87/43 44/89/44 59/88/59
f 44/89/44 60/90/60 59/88/59
f 44/89/44 45/91/45 60/90/60
f 45/91/45 61/92/61 60/90/60
f 45/91/45 46/93/46 61/92/61
f 46/93/46 62/94/62 61/92/61
f 46/93/46 47/95/47 62/94/62
f 47/95/47 63/96/63 62/94/62
f 47/95/47 48/97/48 63/96/63
f 48/97/48 64/98/64 63/96/63
f 48/97/48 33/67/33 64/98/64
f 33/67/33 49/70/49 64/98/64
f 2/2/3 1/1/4 65/99/65
f 3/5/6 2/2/3 65/99/65
f 4/7/8 3/5/6 65/99/65
f 5/9/10 4/7/8 65/99/65
f 6/11/12 5/9/10 65/99/65
f 7/13/14 6/11/12 65/99/65
f 8/15/16 7/13/14 65/99/65
f 9/17/18 8/15/16 65/99/65
f 10/19/20 9/17/18 65/99/65
f 11/21/22 10/19/20 65/99/65
f 12/23/24 11/21/22 65/99/65
f 13/25/26 12/23/24 65/99/65
f 14/27/28 13/25/26 65/99/65
f 15/29/30 14/27/28 65/99/65
f 16/31/32 15/29/30 65/99/65
f 1/1/4 16/31/32 65/99/65
f 49/70/49 50/69/50 66/100/66
f 50/69/50 51/72/51 66/100/66
f 51/72/51 52/74/52 66/100/66
f 52/74/52 53/76/53 66/100/66
f 53/76/53 54/78/54 66/100/66
f 54/78/54 55/80/55 66/100/66
f 55/80/55 56/82/56 66/100/66
f 56/82/56 57/84/57 66/100/66
f 57/84/57 58/86/58 66/100/66
f 58/86/58 59/88/59 66/100/66
f 59/88/59 60/90/60 66/100/66
f 60/90/60 61/92/61 66/100/66
f 61/92/61 62/94/62 66/100/66
f 62/94/62 63/96/63 66/100/66
f 63/96/63 64/98/64 66/100/66
f 64/98/64 49/70/49 66/100/66
s 2
usemtl lambert2SG
f 67/101/67 68/102/68 69/104/69
f 68/102/68 70/103/70 69/104/69
s 3
usemtl Hoover01_02_bumpmapped_blinn1SG
f 73/106/71 74/107/72 71/105/73
f 71/105/73 74/107/72 72/108/74
s 4
f 73/106/75 71/105/76 76/110/77
f 71/105/76 75/109/78 76/110/77
f 74/107/79 76/110/77 72/108/80
f 76/110/77 75/109/78 72/108/80
s 5
f 79/112/81 80/113/82 77/111/83
f 77/111/83 80/113/82 78/114/84
s 6
f 79/112/85 77/111/86 82/116/87
f 77/111/86 81/115/88 82/116/87
f 80/113/89 82/116/87 78/114/90
f 82/116/87 81/115/88 78/114/90
s 7
f 85/118/91 86/119/92 83/117/93
f 83/117/93 86/119/92 84/120/94
s 8
f 85/118/95 83/117/96 88/122/97
f 83/117/96 87/121/98 88/122/97
f 86/119/99 88/122/97 84/120/100
f 88/122/97 87/121/98 84/120/100
s 9
f 91/124/101 92/125/102 89/123/103
f 89/123/103 92/125/102 90/126/104
s 10
f 91/124/105 89/123/106 94/128/107
f 89/123/106 93/127/108 94/128/107
f 92/125/109 94/128/107 90/126/110
f 94/128/107 93/127/108 90/126/110
