# This file uses meters as units for non-parametric coordinates.

mtllib Hover01_fire.mtl
g default
v -22.787313 -8.221977 -111.865608
v -24.572226 -8.557315 -111.865608
v -26.357138 -8.221977 -111.865608
v -27.096474 -7.412393 -111.865608
v -26.357138 -6.602810 -111.865608
v -24.572226 -6.267471 -111.865608
v -22.787313 -6.602810 -111.865608
v -22.047977 -7.412395 -111.865608
v -22.787313 -8.221977 -142.207016
v -24.572226 -8.557315 -142.207016
v -26.357138 -8.221977 -142.207016
v -27.096474 -7.412393 -142.207016
v -26.357138 -6.602810 -142.207016
v -24.572226 -6.267471 -142.207016
v -22.787313 -6.602810 -142.207016
v -22.047977 -7.412395 -142.207016
v 26.356808 -8.221977 -111.865608
v 24.571896 -8.557315 -111.865608
v 22.786983 -8.221977 -111.865608
v 22.047647 -7.412393 -111.865608
v 22.786983 -6.602810 -111.865608
v 24.571896 -6.267471 -111.865608
v 26.356808 -6.602810 -111.865608
v 27.096144 -7.412395 -111.865608
v 26.356808 -8.221977 -142.207016
v 24.571896 -8.557315 -142.207016
v 22.786983 -8.221977 -142.207016
v 22.047647 -7.412393 -142.207016
v 22.786983 -6.602810 -142.207016
v 24.571896 -6.267471 -142.207016
v 26.356808 -6.602810 -142.207016
v 27.096144 -7.412395 -142.207016
vt -0.499968 0.000000
vt -0.249968 0.000000
vt 0.000032 0.000000
vt 0.250032 0.000000
vt 0.500032 0.000000
vt 0.750032 0.000000
vt 1.000032 0.000000
vt 1.250032 0.000000
vt 1.500032 0.000000
vt 1.250032 0.991936
vt 1.500032 0.991936
vt -0.499968 0.991936
vt -0.249968 0.991936
vt 0.000032 0.991936
vt 0.250032 0.991936
vt 0.500032 0.991936
vt 0.750032 0.991936
vt 1.000032 0.991936
vt 1.250032 0.000000
vt 1.500032 0.000000
vt 1.500032 0.991936
vt 1.250032 0.991936
vt -0.499968 0.000000
vt -0.249968 0.000000
vt -0.249968 0.991936
vt -0.499968 0.991936
vt 0.000032 0.000000
vt 0.000032 0.991936
vt 0.250032 0.000000
vt 0.250032 0.991936
vt 0.500032 0.000000
vt 0.500032 0.991936
vt 0.750032 0.000000
vt 0.750032 0.991936
vt 1.000032 0.000000
vt 1.000032 0.991936
vn 0.184643 -0.982806 -0.000000
vn 0.184643 -0.982806 0.000000
vn 0.184643 -0.982806 0.000000
vn 0.184643 -0.982806 0.000000
vn -0.184643 -0.982806 -0.000000
vn -0.184643 -0.982806 0.000000
vn -0.184643 -0.982806 0.000000
vn -0.184643 -0.982806 0.000000
vn -0.738418 -0.674344 -0.000000
vn -0.738418 -0.674344 0.000000
vn -0.738418 -0.674344 0.000000
vn -0.738418 -0.674344 0.000000
vn -0.738416 0.674345 -0.000000
vn -0.738416 0.674345 0.000000
vn -0.738416 0.674345 0.000000
vn -0.738416 0.674345 0.000000
vn -0.184644 0.982806 -0.000000
vn -0.184644 0.982806 0.000000
vn -0.184644 0.982806 0.000000
vn -0.184644 0.982806 0.000000
vn 0.184644 0.982806 -0.000000
vn 0.184644 0.982806 0.000000
vn 0.184644 0.982806 0.000000
vn 0.184644 0.982806 0.000000
vn 0.738418 0.674344 0.000000
vn 0.738418 0.674344 -0.000000
vn 0.738418 0.674344 -0.000000
vn 0.738418 0.674344 -0.000000
vn 0.738416 -0.674345 0.000000
vn 0.738416 -0.674345 -0.000000
vn 0.738416 -0.674345 -0.000000
vn 0.738416 -0.674345 -0.000000
vn 0.184643 -0.982806 -0.000000
vn 0.184643 -0.982806 0.000000
vn 0.184643 -0.982806 0.000000
vn 0.184643 -0.982806 0.000000
vn -0.184643 -0.982806 -0.000000
vn -0.184643 -0.982806 0.000000
vn -0.184643 -0.982806 0.000000
vn -0.184643 -0.982806 0.000000
vn -0.738417 -0.674344 -0.000000
vn -0.738417 -0.674344 -0.000000
vn -0.738417 -0.674344 -0.000000
vn -0.738417 -0.674344 0.000000
vn -0.738417 0.674345 -0.000000
vn -0.738417 0.674345 0.000000
vn -0.738417 0.674345 0.000000
vn -0.738417 0.674345 0.000000
vn -0.184644 0.982806 -0.000000
vn -0.184644 0.982806 0.000000
vn -0.184644 0.982806 0.000000
vn -0.184644 0.982806 0.000000
vn 0.184644 0.982806 -0.000000
vn 0.184644 0.982806 0.000000
vn 0.184644 0.982806 0.000000
vn 0.184644 0.982806 0.000000
vn 0.738418 0.674343 0.000000
vn 0.738418 0.674343 -0.000000
vn 0.738418 0.674343 -0.000000
vn 0.738418 0.674343 -0.000000
vn 0.738416 -0.674346 0.000000
vn 0.738416 -0.674346 -0.000000
vn 0.738416 -0.674346 -0.000000
vn 0.738416 -0.674346 -0.000000
s 1
g h01_fire hover01
usemtl lambert5SG
f 1/8/1 2/9/2 9/10/3
f 2/9/2 10/11/4 9/10/3
s 2
f 2/1/5 3/2/6 10/12/7
f 3/2/6 11/13/8 10/12/7
s 3
f 3/2/9 4/3/10 11/13/11
f 4/3/10 12/14/12 11/13/11
s 4
f 4/3/13 5/4/14 12/14/15
f 5/4/14 13/15/16 12/14/15
s 5
f 5/4/17 6/5/18 13/15/19
f 6/5/18 14/16/20 13/15/19
s 6
f 6/5/21 7/6/22 14/16/23
f 7/6/22 15/17/24 14/16/23
s 7
f 7/6/25 8/7/26 15/17/27
f 8/7/26 16/18/28 15/17/27
s 8
f 8/7/29 1/8/30 16/18/31
f 1/8/30 9/10/32 16/18/31
s 9
f 17/19/33 18/20/34 25/22/35
f 18/20/34 26/21/36 25/22/35
s 10
f 18/23/37 19/24/38 26/26/39
f 19/24/38 27/25/40 26/26/39
s 11
f 19/24/41 20/27/42 27/25/43
f 20/27/42 28/28/44 27/25/43
s 12
f 20/27/45 21/29/46 28/28/47
f 21/29/46 29/30/48 28/28/47
s 13
f 21/29/49 22/31/50 29/30/51
f 22/31/50 30/32/52 29/30/51
s 14
f 22/31/53 23/33/54 30/32/55
f 23/33/54 31/34/56 30/32/55
s 15
f 23/33/57 24/35/58 31/34/59
f 24/35/58 32/36/60 31/34/59
s 16
f 24/35/61 17/19/62 32/36/63
f 17/19/62 25/22/64 32/36/63
